<?xml version="1.0" encoding="UTF-8" standalone="no"?>
<!-- Created with Inkscape (http://www.inkscape.org/) -->

<svg
   width="11.558162mm"
   height="12.053972mm"
   viewBox="0 0 11.558161 12.053972"
   version="1.1"
   id="svg1"
   inkscape:version="1.4.3 (0d15f75042, 2025-12-25)"
   sodipodi:docname="fullscreen.svg"
   xmlns:inkscape="http://www.inkscape.org/namespaces/inkscape"
   xmlns:sodipodi="http://sodipodi.sourceforge.net/DTD/sodipodi-0.dtd"
   xmlns="http://www.w3.org/2000/svg"
   xmlns:svg="http://www.w3.org/2000/svg">
  <sodipodi:namedview
     id="namedview1"
     pagecolor="#ffffff"
     bordercolor="#000000"
     borderopacity="0.25"
     inkscape:showpageshadow="2"
     inkscape:pageopacity="0.0"
     inkscape:pagecheckerboard="0"
     inkscape:deskcolor="#d1d1d1"
     inkscape:document-units="mm"
     inkscape:zoom="5.2667228"
     inkscape:cx="19.271947"
     inkscape:cy="24.398474"
     inkscape:window-width="1486"
     inkscape:window-height="1003"
     inkscape:window-x="0"
     inkscape:window-y="0"
     inkscape:window-maximized="1"
     inkscape:current-layer="layer1" />
  <defs
     id="defs1" />
  <g
     inkscape:label="Layer 1"
     inkscape:groupmode="layer"
     id="layer1"
     transform="translate(-28.641225,-42.242201)">
    <path
       id="text5"
       style="font-size:8.81944px;line-height:1;font-family:'Trade Winds';-inkscape-font-specification:'Trade Winds';text-align:center;letter-spacing:0px;text-anchor:middle;fill:#ffffff;stroke-width:2"
       d="m 34.310132,47.688952 c 0.113337,0.128226 0.249154,0.234713 0.407147,0.319702 0.157825,0.09596 0.309694,0.208463 0.455996,0.337224 0.22198,0.206916 0.427587,0.4356 0.615893,0.68594 0.188309,0.250336 0.36014,0.489237 0.515831,0.717073 0.131154,0.04607 0.264196,0.128065 0.399687,0.245661 0.135486,0.117596 0.284512,0.259815 0.446678,0.427299 0.183788,0.189813 0.378187,0.396546 0.583416,0.619683 0.205232,0.223132 0.402577,0.421259 0.592123,0.594681 0.05984,0.0481 0.119885,0.09451 0.179778,0.138489 -0.0055,-0.03265 -0.01275,-0.06518 -0.02132,-0.09706 -0.0086,-0.03528 -0.025,-0.08899 -0.05013,-0.161367 -0.02513,-0.07236 -0.05178,-0.147165 -0.07996,-0.224397 -0.03123,-0.0821 -0.06046,-0.155273 -0.0874,-0.219722 -0.02998,-0.06932 -0.05439,-0.118607 -0.07272,-0.147781 -0.02316,-0.02614 -0.03258,-0.05731 -0.02843,-0.09382 -0.0038,-0.03832 -0.02111,-0.07169 -0.0522,-0.09964 -0.04209,-0.03459 -0.07983,-0.07848 -0.113428,-0.131964 -0.03361,-0.05348 -0.06907,-0.09941 -0.106261,-0.137076 -0.08485,-0.102655 -0.136946,-0.212325 -0.156127,-0.329113 -0.01914,-0.116812 0.0051,-0.213434 0.07249,-0.289669 0.0328,-0.03415 0.07113,-0.07501 0.115454,-0.123192 0.03946,-0.04514 0.0854,-0.08057 0.137077,-0.106261 0.05348,-0.0336 0.09043,-0.06048 0.111712,-0.08059 0.02128,-0.0201 0.04842,-0.04738 0.08121,-0.08153 0.03946,-0.04512 0.06474,-0.09154 0.0756,-0.139035 0.01085,-0.04749 0.03814,-0.08499 0.0819,-0.11249 0.04376,-0.0275 0.104358,-0.03863 0.182273,-0.03336 0.07,0.0035 0.122086,0.02163 0.156243,0.0544 0.01399,0.01155 0.04572,0.05624 0.0946,0.134027 0.04888,0.0778 0.08333,0.144091 0.104164,0.198813 0.03248,0.09487 0.06746,0.215298 0.104932,0.36128 0.03442,0.14112 0.07779,0.263464 0.129158,0.366809 0.01656,0.03706 0.04342,0.09138 0.08134,0.162495 0.03479,0.06628 0.0727,0.137 0.113675,0.212977 0.03303,0.07418 0.0686,0.146975 0.106509,0.21809 0.02999,0.06932 0.05476,0.124953 0.07434,0.166896 0.03795,0.07111 0.057,0.133912 0.05714,0.188079 -0.0078,0.05235 -0.0012,0.105661 0.01961,0.160397 0.02389,0.05958 0.05338,0.112253 0.08876,0.15783 0.03537,0.04558 0.06845,0.09241 0.099,0.141027 0.03361,0.05349 0.05647,0.117503 0.06881,0.19112 0.0093,0.06875 0.01613,0.138647 0.02054,0.21046 0.0044,0.0718 0.01153,0.142144 0.02083,0.210899 0.0062,0.0639 0.0221,0.12153 0.04778,0.173203 0.01528,0.02431 0.03115,0.04486 0.04826,0.06121 0.01222,0.01945 0.02385,0.04266 0.03422,0.07005 0.05691,0.133764 0.09728,0.258 0.121274,0.371762 0.02095,0.108893 0.01397,0.221576 -0.02104,0.338518 0.02762,0.09792 0.03588,0.208216 0.02461,0.330576 -0.0082,0.127219 -0.0465,0.222472 -0.115121,0.285934 -0.02609,0.02324 -0.06678,0.04514 -0.121513,0.06595 -0.05651,0.02877 -0.107455,0.05056 -0.152455,0.06527 -0.0657,0.01415 -0.118053,0.01653 -0.157628,0.0075 -0.03959,-0.0091 -0.08198,-0.01651 -0.12642,-0.02249 -0.02557,0.0025 -0.05337,0.0068 -0.08378,0.01236 -0.02734,0.01045 -0.05124,0.01525 -0.07195,0.01468 -0.03959,-0.0091 -0.07844,-0.02232 -0.116214,-0.03928 -0.04264,-0.01391 -0.07975,-0.01393 -0.111964,-4.23e-4 -0.159701,-0.103092 -0.324022,-0.186533 -0.492764,-0.250041 -0.173604,-0.06045 -0.344684,-0.122287 -0.513426,-0.185794 -0.0457,-0.01875 -0.09266,-0.03353 -0.140167,-0.04437 -0.05055,-0.01571 -0.09586,-0.0345 -0.136689,-0.05632 -0.124295,-0.05753 -0.22156,-0.125665 -0.29113,-0.204014 -0.07749,-0.08015 -0.178231,-0.149089 -0.302528,-0.206615 -0.11152,-0.05878 -0.226762,-0.101234 -0.34551,-0.128347 -0.121806,-0.03197 -0.235132,-0.08282 -0.339979,-0.152572 -0.06888,-0.04487 -0.129035,-0.09204 -0.180273,-0.141229 -0.05124,-0.04917 -0.09952,-0.09363 -0.144655,-0.133093 -0.04819,-0.04432 -0.09795,-0.08066 -0.149745,-0.109145 -0.0518,-0.02848 -0.111562,-0.04838 -0.179756,-0.05977 -0.0986,-0.0059 -0.172048,-0.01415 -0.21955,-0.02501 -0.05541,-0.01265 -0.127186,-0.02498 -0.216075,-0.03695 -0.03291,-0.02001 -0.07177,-0.03329 -0.116213,-0.03928 -0.04445,-0.006 -0.09031,-0.01424 -0.137825,-0.02509 -0.04749,-0.01085 -0.09189,-0.02722 -0.132732,-0.04904 -0.04083,-0.02183 -0.07238,-0.05585 -0.09501,-0.102646 -0.06097,-0.04307 -0.146618,-0.08798 -0.256893,-0.133978 -0.11027,-0.046 -0.192807,-0.112604 -0.247791,-0.200117 -0.02877,-0.05651 -0.0419,-0.126046 -0.03966,-0.208824 -0.0025,-0.07973 0.01144,-0.143024 0.04299,-0.189958 0.05642,-0.08291 0.127327,-0.137644 0.212474,-0.164015 0.07722,-0.02818 0.160237,-0.03605 0.249126,-0.0241 0.08403,0.01502 0.165397,0.04167 0.244001,0.08043 0.0786,0.03877 0.141855,0.0804 0.190045,0.124715 0.05541,0.01266 0.111687,0.03175 0.168356,0.05718 0.05667,0.02543 0.117241,0.05138 0.181826,0.07862 0.05179,0.02847 0.107499,0.05811 0.167226,0.0884 0.05971,0.03029 0.118387,0.06462 0.176299,0.102832 0.06402,0.04793 0.123376,0.09859 0.177677,0.152625 0.05124,0.04918 0.113988,0.05763 0.188162,0.02459 0.0786,0.03877 0.150108,0.07162 0.214687,0.09886 0.05667,0.02543 0.1159,0.04924 0.177428,0.07161 0.0536,0.02057 0.110269,0.046 0.16999,0.07628 0.05667,0.02543 0.123011,0.06152 0.199808,0.108201 0.04415,0.135012 0.114946,0.209602 0.211747,0.223374 0.08889,0.01196 0.177301,0.01748 0.26494,0.01666 0.01825,0.01327 0.03156,0.02235 0.0407,0.02691 l -0.127051,-0.13134 -0.259293,-0.267957 c -0.08648,-0.08933 -0.170133,-0.181464 -0.25104,-0.276195 -0.0809,-0.09474 -0.14849,-0.180867 -0.202192,-0.258671 -0.04832,-0.0722 -0.08284,-0.136343 -0.10393,-0.191637 -0.01568,-0.04971 -0.04512,-0.09695 -0.08837,-0.141609 -0.05405,-0.05583 -0.114048,-0.09479 -0.179617,-0.117839 -0.06576,-0.01203 -0.131031,-0.04101 -0.196252,-0.08603 -0.05982,-0.03944 -0.13313,-0.109072 -0.219435,-0.209389 -0.0863,-0.100314 -0.167129,-0.189782 -0.242808,-0.26794 L 35.611756,50.29002 c -0.08667,-0.07834 -0.162094,-0.156694 -0.226785,-0.234677 -0.04309,-0.05563 -0.08338,-0.113836 -0.120866,-0.17489 -0.03748,-0.06106 -0.07777,-0.119263 -0.120868,-0.174894 -0.09189,-0.09491 -0.183978,-0.184496 -0.276054,-0.268411 -0.09225,-0.07294 -0.184451,-0.151243 -0.276522,-0.235161 -0.09766,-0.07851 -0.18958,-0.162601 -0.276074,-0.251922 -0.08107,-0.08374 -0.150949,-0.177883 -0.209699,-0.28325 0.01222,-0.07673 0.01083,-0.162513 -0.0041,-0.256182 -0.0096,-0.08809 -0.01098,-0.178212 -0.004,-0.271521 0.0014,-0.0879 0.01669,-0.173016 0.04546,-0.254985 0.02862,-0.07097 0.08448,-0.136081 0.167871,-0.195181 z" />
    <path
       id="path6"
       style="font-size:8.81944px;line-height:1;font-family:'Trade Winds';-inkscape-font-specification:'Trade Winds';text-align:center;letter-spacing:0px;text-anchor:middle;fill:#ffffff;stroke-width:2"
       d="m 34.938997,48.155241 c -0.123072,0.118914 -0.22343,0.259321 -0.301326,0.420929 -0.08887,0.161926 -0.19452,0.318636 -0.316664,0.470506 -0.196866,0.230941 -0.416204,0.446489 -0.657944,0.645715 -0.241736,0.199229 -0.47278,0.381489 -0.693485,0.547133 -0.04021,0.133069 -0.116219,0.269617 -0.227688,0.410191 -0.111471,0.14057 -0.246939,0.295758 -0.407064,0.465193 -0.181474,0.192028 -0.379379,0.395406 -0.593192,0.610332 -0.213809,0.214928 -0.402986,0.420868 -0.56783,0.61792 -0.0454,0.06191 -0.0891,0.12396 -0.130377,0.185745 0.03238,-0.0069 0.06455,-0.01563 0.09602,-0.0256 0.03486,-0.01016 0.0878,-0.02892 0.158984,-0.05723 0.07118,-0.02831 0.144724,-0.05826 0.22063,-0.08983 0.08063,-0.03484 0.152438,-0.06729 0.215629,-0.09706 0.06792,-0.03303 0.116077,-0.05959 0.144409,-0.0792 0.02509,-0.02429 0.05581,-0.03509 0.09247,-0.03257 0.03812,-0.0055 0.07069,-0.02427 0.09722,-0.05657 0.03269,-0.04358 0.07486,-0.08323 0.126802,-0.119171 0.05194,-0.03594 0.09625,-0.07341 0.132227,-0.112236 0.09879,-0.08932 0.206042,-0.14623 0.321864,-0.170574 0.115848,-0.02431 0.213448,-0.0044 0.292599,0.05957 0.03558,0.03125 0.07809,0.06774 0.128192,0.109875 0.04684,0.03742 0.08428,0.08174 0.112237,0.132228 0.03594,0.05194 0.06443,0.08766 0.08546,0.108027 0.02103,0.02037 0.04948,0.04627 0.08506,0.07751 0.04683,0.03742 0.09432,0.06062 0.142251,0.06935 0.04793,0.0087 0.0866,0.03433 0.116012,0.07683 0.02941,0.0425 0.04323,0.102542 0.04141,0.180615 -3.74e-4,0.07009 -0.01619,0.122924 -0.04742,0.158503 -0.01092,0.01449 -0.05415,0.04817 -0.129698,0.100453 -0.07555,0.05228 -0.140253,0.08964 -0.193997,0.112881 -0.09334,0.03666 -0.212094,0.07694 -0.35627,0.120854 -0.139453,0.04065 -0.259754,0.0894 -0.360718,0.145303 -0.03629,0.01818 -0.08936,0.04744 -0.158727,0.08847 -0.06468,0.0377 -0.13364,0.07871 -0.207724,0.123012 -0.07264,0.03629 -0.143788,0.07505 -0.213151,0.116078 -0.06792,0.03303 -0.122401,0.06025 -0.163433,0.08167 -0.06935,0.04106 -0.131252,0.06289 -0.185361,0.06542 -0.05265,-0.0055 -0.105609,0.0035 -0.159368,0.0267 -0.05846,0.02651 -0.109775,0.05831 -0.153737,0.09568 -0.04397,0.03736 -0.08928,0.07248 -0.136497,0.105158 -0.05194,0.03594 -0.114883,0.06162 -0.187879,0.07722 -0.06827,0.01233 -0.137795,0.02226 -0.209342,0.02986 -0.07154,0.0076 -0.141493,0.01782 -0.209767,0.03016 -0.06356,0.0091 -0.12043,0.02747 -0.170913,0.05542 -0.02361,0.01634 -0.04343,0.0331 -0.05901,0.05093 -0.01889,0.01307 -0.04156,0.02572 -0.06847,0.03729 -0.131109,0.06279 -0.253431,0.108624 -0.366016,0.137647 -0.107857,0.02576 -0.220739,0.02379 -0.339118,-0.006 -0.0966,0.03194 -0.20642,0.04508 -0.329159,0.03925 -0.12746,-0.0026 -0.224316,-0.03658 -0.29076,-0.102324 -0.02437,-0.02503 -0.04806,-0.06471 -0.07128,-0.118467 -0.03125,-0.05518 -0.05527,-0.105106 -0.07197,-0.149409 -0.01705,-0.06501 -0.02175,-0.117204 -0.01448,-0.15714 0.0073,-0.03995 0.01286,-0.08263 0.01686,-0.127294 -0.0036,-0.02543 -0.0092,-0.05301 -0.01606,-0.08315 -0.01165,-0.02685 -0.0175,-0.05052 -0.01786,-0.07122 0.0073,-0.03995 0.01882,-0.07936 0.03408,-0.117842 0.012,-0.04322 0.01037,-0.08029 -0.0045,-0.111874 0.09591,-0.164117 0.171976,-0.331977 0.227936,-0.50337 0.05269,-0.176115 0.106876,-0.34977 0.162835,-0.521163 0.01671,-0.04648 0.02938,-0.09406 0.03811,-0.141997 0.01345,-0.0512 0.03021,-0.0973 0.0502,-0.139053 0.05196,-0.126724 0.115713,-0.226916 0.190898,-0.299894 0.07664,-0.08097 0.141036,-0.184669 0.192991,-0.311396 0.05377,-0.114017 0.09108,-0.231029 0.112894,-0.350863 0.02653,-0.123103 0.07231,-0.238574 0.13734,-0.346412 0.04177,-0.0708 0.08623,-0.132991 0.133093,-0.18636 0.04685,-0.05338 0.08913,-0.103574 0.126545,-0.150417 0.04213,-0.05011 0.07624,-0.101427 0.102395,-0.154439 0.02616,-0.05302 0.04338,-0.113599 0.05174,-0.182231 0.0015,-0.09877 0.0065,-0.172507 0.01524,-0.220443 0.01018,-0.05592 0.01932,-0.128169 0.02733,-0.217501 0.01853,-0.03376 0.03008,-0.07318 0.03408,-0.117841 0.004,-0.04467 0.01022,-0.09086 0.01895,-0.138803 0.0087,-0.04793 0.02312,-0.09301 0.0431,-0.134776 0.01999,-0.04176 0.05258,-0.07478 0.09833,-0.09947 0.04032,-0.06282 0.08139,-0.150377 0.122451,-0.262583 0.04106,-0.112202 0.103939,-0.197613 0.188927,-0.256425 0.05518,-0.03125 0.124064,-0.04745 0.206859,-0.04889 0.07953,-0.0061 0.143391,0.0051 0.191679,0.03452 0.08533,0.05268 0.143156,0.121096 0.173278,0.20499 0.03158,0.0759 0.04312,0.158479 0.03512,0.247811 -0.01128,0.08461 -0.03429,0.167083 -0.06953,0.24733 -0.03524,0.08024 -0.07403,0.145281 -0.116162,0.19539 -0.01019,0.05592 -0.02676,0.112985 -0.04965,0.170726 -0.02289,0.05774 -0.04613,0.119406 -0.07047,0.185135 -0.02615,0.05301 -0.05328,0.109971 -0.08089,0.170983 -0.02761,0.061 -0.05931,0.121137 -0.09491,0.180686 -0.04504,0.06608 -0.09302,0.127629 -0.144593,0.184273 -0.04686,0.05337 -0.05251,0.116432 -0.01622,0.189068 -0.03524,0.08024 -0.06489,0.153137 -0.08924,0.218861 -0.02289,0.05774 -0.04405,0.11797 -0.06367,0.18043 -0.01817,0.05446 -0.04106,0.112201 -0.06867,0.173206 -0.02289,0.05774 -0.056,0.12562 -0.09923,0.204412 -0.132921,0.05009 -0.204297,0.124131 -0.213761,0.221448 -0.008,0.08933 -0.0096,0.177901 -0.0049,0.265418 -0.01244,0.01882 -0.02093,0.03252 -0.02508,0.04186 l 0.125574,-0.132753 0.256191,-0.270924 c 0.0854,-0.09036 0.173738,-0.178016 0.264786,-0.263045 0.09105,-0.08503 0.174103,-0.156367 0.249448,-0.213468 0.06999,-0.05147 0.132534,-0.0888 0.186838,-0.112328 0.04897,-0.01787 0.09485,-0.04938 0.13755,-0.09456 0.05337,-0.05648 0.08964,-0.118142 0.109754,-0.184668 0.0091,-0.06623 0.03516,-0.132721 0.07724,-0.199875 0.03674,-0.06151 0.103058,-0.137837 0.199448,-0.228508 0.09639,-0.09067 0.182181,-0.175383 0.256905,-0.254454 l 0.24802,-0.262753 c 0.07441,-0.09006 0.14935,-0.168886 0.224385,-0.236972 0.05366,-0.04552 0.110026,-0.08835 0.169358,-0.128506 0.05933,-0.04016 0.115695,-0.08298 0.169359,-0.128507 0.09074,-0.09601 0.176153,-0.191982 0.255901,-0.287689 0.06877,-0.09539 0.142912,-0.190978 0.222663,-0.286682 0.0741,-0.101043 0.154031,-0.196606 0.239427,-0.286978 0.08006,-0.08471 0.171012,-0.158691 0.273669,-0.222057 0.0772,0.0088 0.162833,0.0036 0.255748,-0.01547 0.08758,-0.01347 0.177549,-0.01888 0.271076,-0.01602 0.08788,-0.0025 0.173586,0.009 0.256751,0.03411 0.07218,0.02545 0.139694,0.07836 0.202436,0.159047 z" />
    <path
       id="path7"
       style="font-size:8.81944px;line-height:1;font-family:'Trade Winds';-inkscape-font-specification:'Trade Winds';text-align:center;letter-spacing:0px;text-anchor:middle;fill:#ffffff;stroke-width:2"
       d="m 33.896892,48.383132 c 0.123072,-0.118914 0.22343,-0.259321 0.301326,-0.420929 0.08887,-0.161926 0.19452,-0.318636 0.316664,-0.470506 0.196866,-0.230941 0.416204,-0.446489 0.657944,-0.645715 0.241736,-0.199229 0.47278,-0.381489 0.693485,-0.547133 0.04021,-0.133069 0.116219,-0.269617 0.227688,-0.410191 0.111471,-0.14057 0.246939,-0.295758 0.407064,-0.465193 0.181474,-0.192028 0.379379,-0.395406 0.593192,-0.610332 0.213809,-0.214928 0.402986,-0.420868 0.56783,-0.61792 0.0454,-0.06191 0.0891,-0.12396 0.130377,-0.185745 -0.03238,0.0069 -0.06455,0.01563 -0.09602,0.0256 -0.03486,0.01016 -0.0878,0.02892 -0.158984,0.05723 -0.07118,0.02831 -0.144724,0.05826 -0.22063,0.08983 -0.08063,0.03484 -0.152438,0.06729 -0.215629,0.09706 -0.06792,0.03303 -0.116077,0.05959 -0.144409,0.0792 -0.02509,0.02429 -0.05581,0.03509 -0.09247,0.03257 -0.03812,0.0055 -0.07069,0.02427 -0.09722,0.05657 -0.03269,0.04358 -0.07486,0.08323 -0.126802,0.119171 -0.05194,0.03594 -0.09625,0.07341 -0.132227,0.112236 -0.09879,0.08932 -0.206042,0.14623 -0.321864,0.170574 -0.115848,0.02431 -0.213448,0.0044 -0.292599,-0.05957 -0.03558,-0.03125 -0.07809,-0.06774 -0.128192,-0.109875 -0.04684,-0.03742 -0.08428,-0.08174 -0.112237,-0.132228 -0.03594,-0.05194 -0.06443,-0.08766 -0.08546,-0.108027 -0.02103,-0.02037 -0.04948,-0.04627 -0.08506,-0.07751 -0.04683,-0.03742 -0.09432,-0.06062 -0.142251,-0.06935 -0.04793,-0.0087 -0.0866,-0.03433 -0.116012,-0.07683 -0.02941,-0.0425 -0.04323,-0.102542 -0.04141,-0.180615 3.74e-4,-0.07009 0.01619,-0.122924 0.04742,-0.158503 0.01092,-0.01449 0.05415,-0.04817 0.129698,-0.100453 0.07555,-0.05228 0.140253,-0.08964 0.193997,-0.112881 0.09334,-0.03666 0.212094,-0.07694 0.35627,-0.120854 0.139453,-0.04065 0.259754,-0.0894 0.360718,-0.145303 0.03629,-0.01818 0.08936,-0.04744 0.158727,-0.08847 0.06468,-0.0377 0.13364,-0.07871 0.207724,-0.123012 0.07264,-0.03629 0.143788,-0.07505 0.213151,-0.116078 0.06792,-0.03303 0.122401,-0.06025 0.163433,-0.08167 0.06935,-0.04106 0.131252,-0.06289 0.185361,-0.06542 0.05265,0.0055 0.105609,-0.0035 0.159368,-0.0267 0.05846,-0.02651 0.109775,-0.05831 0.153737,-0.09568 0.04397,-0.03736 0.08928,-0.07248 0.136497,-0.105158 0.05194,-0.03594 0.114883,-0.06162 0.187879,-0.07722 0.06827,-0.01233 0.137795,-0.02226 0.209342,-0.02986 0.07154,-0.0076 0.141493,-0.01782 0.209767,-0.03016 0.06356,-0.0091 0.12043,-0.02747 0.170913,-0.05542 0.02361,-0.01634 0.04343,-0.0331 0.05901,-0.05093 0.01889,-0.01307 0.04156,-0.02572 0.06847,-0.03729 0.131109,-0.06279 0.253431,-0.108624 0.366016,-0.137647 0.107857,-0.02576 0.220739,-0.02379 0.339118,0.006 0.0966,-0.03194 0.20642,-0.04508 0.329159,-0.03925 0.12746,0.0026 0.224316,0.03658 0.29076,0.102324 0.02437,0.02503 0.04806,0.06471 0.07128,0.118467 0.03125,0.05518 0.05527,0.105106 0.07197,0.149409 0.01705,0.06501 0.02175,0.117204 0.01448,0.15714 -0.0073,0.03995 -0.01286,0.08263 -0.01686,0.127294 0.0036,0.02543 0.0092,0.05301 0.01606,0.08315 0.01165,0.02685 0.0175,0.05052 0.01786,0.07122 -0.0073,0.03995 -0.01882,0.07936 -0.03408,0.117842 -0.012,0.04322 -0.01037,0.08029 0.0045,0.111874 -0.09591,0.164117 -0.171976,0.331977 -0.227936,0.50337 -0.05269,0.176115 -0.106876,0.34977 -0.162835,0.521163 -0.01671,0.04648 -0.02938,0.09406 -0.03811,0.141997 -0.01345,0.0512 -0.03021,0.0973 -0.0502,0.139053 -0.05196,0.126724 -0.115713,0.226916 -0.190898,0.299894 -0.07664,0.08097 -0.141036,0.184669 -0.192991,0.311396 -0.05377,0.114017 -0.09108,0.231029 -0.112894,0.350863 -0.02653,0.123103 -0.07231,0.238574 -0.13734,0.346412 -0.04177,0.0708 -0.08623,0.132991 -0.133093,0.18636 -0.04685,0.05338 -0.08913,0.103574 -0.126545,0.150417 -0.04213,0.05011 -0.07624,0.101427 -0.102395,0.154439 -0.02616,0.05302 -0.04338,0.113599 -0.05174,0.182231 -0.0015,0.09877 -0.0065,0.172507 -0.01524,0.220443 -0.01018,0.05592 -0.01932,0.128169 -0.02733,0.217501 -0.01853,0.03376 -0.03008,0.07318 -0.03408,0.117841 -0.004,0.04467 -0.01022,0.09086 -0.01895,0.138803 -0.0087,0.04793 -0.02312,0.09301 -0.0431,0.134776 -0.01999,0.04176 -0.05258,0.07478 -0.09833,0.09947 -0.04032,0.06282 -0.08139,0.150377 -0.122451,0.262583 -0.04106,0.112202 -0.103939,0.197613 -0.188927,0.256425 -0.05518,0.03125 -0.124064,0.04745 -0.206859,0.04889 -0.07953,0.0061 -0.143391,-0.0051 -0.191679,-0.03452 -0.08533,-0.05268 -0.143156,-0.121096 -0.173278,-0.20499 -0.03158,-0.0759 -0.04312,-0.158479 -0.03512,-0.247811 0.01128,-0.08461 0.03429,-0.167083 0.06953,-0.24733 0.03524,-0.08024 0.07403,-0.145281 0.116162,-0.19539 0.01019,-0.05592 0.02676,-0.112985 0.04965,-0.170726 0.02289,-0.05774 0.04613,-0.119406 0.07047,-0.185135 0.02615,-0.05301 0.05328,-0.109971 0.08089,-0.170983 0.02761,-0.061 0.05931,-0.121137 0.09491,-0.180686 0.04504,-0.06608 0.09302,-0.127629 0.144593,-0.184273 0.04686,-0.05337 0.05251,-0.116432 0.01622,-0.189068 0.03524,-0.08024 0.06489,-0.153137 0.08924,-0.218861 0.02289,-0.05774 0.04405,-0.11797 0.06367,-0.18043 0.01817,-0.05446 0.04106,-0.112201 0.06867,-0.173206 0.02289,-0.05774 0.056,-0.12562 0.09923,-0.204412 0.132921,-0.05009 0.204297,-0.124131 0.213761,-0.221448 0.008,-0.08933 0.0096,-0.177901 0.0049,-0.265418 0.01244,-0.01882 0.02093,-0.03252 0.02508,-0.04186 l -0.125574,0.132753 -0.256191,0.270924 c -0.0854,0.09036 -0.173738,0.178016 -0.264786,0.263045 -0.09105,0.08503 -0.174103,0.156367 -0.249448,0.213468 -0.06999,0.05147 -0.132534,0.0888 -0.186838,0.112328 -0.04897,0.01787 -0.09485,0.04938 -0.13755,0.09456 -0.05337,0.05648 -0.08964,0.118142 -0.109754,0.184668 -0.0091,0.06623 -0.03516,0.132721 -0.07724,0.199875 -0.03674,0.06151 -0.103058,0.137837 -0.199448,0.228508 -0.09639,0.09067 -0.182181,0.175383 -0.256905,0.254454 l -0.24802,0.262753 c -0.07441,0.09006 -0.14935,0.168886 -0.224385,0.236972 -0.05366,0.04552 -0.110026,0.08835 -0.169358,0.128506 -0.05933,0.04016 -0.115695,0.08298 -0.169359,0.128507 -0.09074,0.09601 -0.176153,0.191982 -0.255901,0.287689 -0.06877,0.09539 -0.142912,0.190978 -0.222663,0.286682 -0.0741,0.101043 -0.154031,0.196606 -0.239427,0.286978 -0.08006,0.08471 -0.171012,0.158691 -0.273669,0.222057 -0.0772,-0.0088 -0.162833,-0.0036 -0.255748,0.01547 -0.08758,0.01347 -0.177549,0.01888 -0.271076,0.01602 -0.08788,0.0025 -0.173586,-0.009 -0.256751,-0.03411 -0.07218,-0.02545 -0.139694,-0.07836 -0.202436,-0.159047 z" />
    <path
       id="path8"
       style="font-size:8.81944px;line-height:1;font-family:'Trade Winds';-inkscape-font-specification:'Trade Winds';text-align:center;letter-spacing:0px;text-anchor:middle;fill:#ffffff;stroke-width:2"
       d="m 34.600265,48.88406 c -0.114939,-0.126792 -0.252083,-0.231566 -0.411131,-0.314563 -0.159017,-0.09397 -0.312287,-0.204557 -0.460195,-0.33147 -0.224562,-0.204112 -0.433025,-0.430196 -0.624461,-0.67815 -0.191438,-0.247951 -0.366256,-0.484676 -0.524796,-0.710539 -0.131723,-0.04442 -0.265784,-0.124736 -0.402741,-0.24062 -0.136953,-0.115885 -0.287753,-0.256222 -0.452009,-0.421656 -0.186158,-0.187489 -0.383138,-0.391764 -0.591155,-0.612306 -0.208018,-0.220537 -0.407836,-0.416168 -0.599546,-0.587197 -0.06043,-0.04734 -0.121061,-0.093 -0.181502,-0.13622 0.0059,0.03258 0.01361,0.065 0.02253,0.09678 0.009,0.03517 0.02611,0.08867 0.05215,0.160723 0.02604,0.07205 0.05362,0.146504 0.08278,0.223375 0.03225,0.0817 0.0624,0.154502 0.09016,0.218608 0.03085,0.06894 0.05587,0.117914 0.07457,0.146855 0.02348,0.02585 0.0333,0.0569 0.0296,0.09346 0.0043,0.03827 0.02201,0.07142 0.05345,0.09897 0.04253,0.03406 0.08081,0.07747 0.115077,0.130529 0.03427,0.05305 0.07031,0.09854 0.107977,0.13573 0.08613,0.101582 0.139603,0.210588 0.160249,0.327127 0.02061,0.116563 -0.0024,0.21348 -0.06884,0.290555 -0.03237,0.03456 -0.07019,0.0759 -0.113896,0.124633 -0.03889,0.04563 -0.08438,0.08163 -0.135732,0.107977 -0.05305,0.03427 -0.08966,0.06161 -0.110691,0.08199 -0.02103,0.02037 -0.04782,0.04799 -0.08018,0.08255 -0.03889,0.04562 -0.06358,0.09235 -0.07385,0.139973 -0.01025,0.04763 -0.03706,0.08546 -0.08048,0.113509 -0.04341,0.02805 -0.103865,0.03994 -0.18184,0.03565 -0.07004,-0.0026 -0.122348,-0.02009 -0.156915,-0.05244 -0.01414,-0.01137 -0.04642,-0.05566 -0.09627,-0.132827 -0.04985,-0.07717 -0.08513,-0.143034 -0.106653,-0.19749 -0.03368,-0.09446 -0.07016,-0.214433 -0.10946,-0.359934 -0.0362,-0.140676 -0.0811,-0.262465 -0.133755,-0.365157 -0.01702,-0.03684 -0.04457,-0.09083 -0.08337,-0.161461 -0.03563,-0.06585 -0.07442,-0.136076 -0.116342,-0.211532 -0.03396,-0.07376 -0.07043,-0.146103 -0.109235,-0.216736 -0.03086,-0.06894 -0.05632,-0.124256 -0.07643,-0.165949 -0.03884,-0.07063 -0.05867,-0.133186 -0.05949,-0.187348 0.0072,-0.05245 -1.42e-4,-0.105666 -0.02162,-0.160137 -0.02463,-0.05927 -0.05478,-0.111573 -0.09074,-0.156702 -0.03594,-0.04513 -0.0696,-0.09154 -0.100763,-0.139772 -0.03427,-0.05306 -0.05794,-0.116786 -0.0712,-0.190241 -0.01016,-0.06862 -0.01789,-0.138431 -0.02316,-0.210188 -0.0053,-0.07174 -0.01333,-0.141986 -0.02349,-0.210618 -0.007,-0.06381 -0.02363,-0.121243 -0.04995,-0.17259 -0.01559,-0.02411 -0.03171,-0.04447 -0.04903,-0.0606 -0.01246,-0.01929 -0.02438,-0.04236 -0.03509,-0.06962 -0.0586,-0.133039 -0.100512,-0.256757 -0.125935,-0.37021 -0.02232,-0.108622 -0.01673,-0.221384 0.01678,-0.338755 -0.02885,-0.09756 -0.0385,-0.207749 -0.02873,-0.330243 0.0066,-0.127313 0.0437,-0.223039 0.111521,-0.287357 0.02579,-0.02356 0.06621,-0.04598 0.120675,-0.06748 0.05614,-0.02948 0.106811,-0.0519 0.151623,-0.06719 0.06552,-0.01497 0.117834,-0.01804 0.157518,-0.0095 0.03969,0.0086 0.08218,0.01548 0.126693,0.0209 0.02554,-0.0028 0.05328,-0.0075 0.08362,-0.01342 0.02721,-0.01074 0.05105,-0.01589 0.07176,-0.01558 0.03969,0.0086 0.07872,0.02134 0.116698,0.03782 0.04282,0.01337 0.07992,0.01292 0.111962,-9.88e-4 0.160983,0.101079 0.326338,0.182449 0.495865,0.243832 0.17435,0.05827 0.346193,0.117949 0.515719,0.179331 0.04592,0.01818 0.09308,0.03236 0.140713,0.04261 0.05074,0.01507 0.09628,0.03329 0.137385,0.05459 0.125008,0.05597 0.22312,0.122873 0.29367,0.200341 0.07849,0.07918 0.18009,0.146839 0.3051,0.202799 0.112249,0.05737 0.228015,0.09838 0.347094,0.123998 0.122197,0.03043 0.236154,0.07986 0.341868,0.148289 0.06944,0.044 0.130181,0.09042 0.182033,0.138953 0.05186,0.04852 0.100686,0.09238 0.146316,0.131267 0.04874,0.04371 0.09895,0.07943 0.151103,0.107255 0.05216,0.02784 0.112162,0.04697 0.180494,0.05751 0.09867,0.0046 0.172212,0.01199 0.219846,0.02224 0.05556,0.01196 0.127489,0.02339 0.216521,0.03423 0.03316,0.01959 0.07218,0.03239 0.116697,0.03782 0.04452,0.0054 0.09049,0.0131 0.13813,0.02336 0.04763,0.01025 0.09222,0.02606 0.133337,0.04737 0.0411,0.02131 0.07307,0.05493 0.09629,0.101443 0.0615,0.0423 0.147713,0.08613 0.258556,0.130742 0.110838,0.04461 0.194207,0.110173 0.250285,0.196989 0.02948,0.05614 0.04349,0.125509 0.04227,0.208309 0.0035,0.07968 -0.0096,0.143156 -0.04061,0.190484 -0.05537,0.08361 -0.125587,0.139232 -0.210398,0.16667 -0.07687,0.02915 -0.15977,0.03806 -0.248805,0.02719 -0.08421,-0.01396 -0.165908,-0.03958 -0.244993,-0.07736 -0.07908,-0.03778 -0.142853,-0.07862 -0.191596,-0.122318 -0.05556,-0.01197 -0.112076,-0.03034 -0.16906,-0.05506 -0.05698,-0.02472 -0.117878,-0.0499 -0.1828,-0.07633 -0.05215,-0.02783 -0.10822,-0.05675 -0.168323,-0.08629 -0.06009,-0.02954 -0.119189,-0.06313 -0.177576,-0.100609 -0.06462,-0.04713 -0.124605,-0.09703 -0.17958,-0.150381 -0.05186,-0.04853 -0.114703,-0.05619 -0.188457,-0.02222 -0.07908,-0.03778 -0.150995,-0.06973 -0.215911,-0.09616 -0.05698,-0.02472 -0.116509,-0.04778 -0.178313,-0.06938 -0.05385,-0.0199 -0.11084,-0.04462 -0.170935,-0.07414 -0.05698,-0.02472 -0.123774,-0.05996 -0.201151,-0.105682 -0.04584,-0.134447 -0.11757,-0.208142 -0.214537,-0.220697 -0.08903,-0.01084 -0.177506,-0.01526 -0.265128,-0.01334 -0.01841,-0.01304 -0.03185,-0.02195 -0.04104,-0.0264 l 0.128691,0.129733 0.262638,0.26468 c 0.0876,0.08823 0.172399,0.179312 0.25449,0.273019 0.08208,0.09371 0.150749,0.178988 0.205424,0.256112 0.04922,0.07159 0.08455,0.135292 0.106327,0.190317 0.0163,0.04951 0.04634,0.09638 0.09014,0.140487 0.05475,0.05514 0.115231,0.09335 0.181083,0.115574 0.06591,0.01121 0.131536,0.03936 0.197317,0.08356 0.06031,0.03868 0.13449,0.107391 0.222048,0.206616 0.08756,0.09922 0.169499,0.187667 0.246153,0.26487 l 0.254731,0.256252 c 0.08765,0.07724 0.16405,0.154646 0.229715,0.231809 0.04379,0.05508 0.08481,0.112781 0.123053,0.17336 0.03825,0.06058 0.07926,0.118276 0.123056,0.17336 0.09308,0.09375 0.186281,0.182172 0.279404,0.264924 0.09315,0.07177 0.186335,0.148914 0.279453,0.23167 0.09864,0.07728 0.191607,0.160206 0.279217,0.248434 0.08212,0.08271 0.153171,0.175973 0.213239,0.280593 -0.01125,0.07688 -0.0088,0.162636 0.0073,0.25611 0.01072,0.08795 0.01322,0.17806 0.0074,0.271449 -3.09e-4,0.08791 -0.01452,0.173213 -0.04226,0.255536 -0.02773,0.07134 -0.08277,0.137132 -0.165405,0.197274 z" />
  </g>
</svg>
