<?xml version="1.0" encoding="UTF-8" standalone="no"?>
<!-- Created with Inkscape (http://www.inkscape.org/) -->

<svg
   width="17.219049mm"
   height="12.684048mm"
   viewBox="0 0 17.219048 12.684047"
   version="1.1"
   id="svg1"
   inkscape:version="1.4.3 (0d15f75042, 2025-12-25)"
   sodipodi:docname="mute.svg"
   xmlns:inkscape="http://www.inkscape.org/namespaces/inkscape"
   xmlns:sodipodi="http://sodipodi.sourceforge.net/DTD/sodipodi-0.dtd"
   xmlns="http://www.w3.org/2000/svg"
   xmlns:svg="http://www.w3.org/2000/svg">
  <sodipodi:namedview
     id="namedview1"
     pagecolor="#ffffff"
     bordercolor="#000000"
     borderopacity="0.25"
     inkscape:showpageshadow="2"
     inkscape:pageopacity="0.0"
     inkscape:pagecheckerboard="0"
     inkscape:deskcolor="#d1d1d1"
     inkscape:document-units="mm"
     inkscape:zoom="5.2667228"
     inkscape:cx="12.816319"
     inkscape:cy="24.588346"
     inkscape:window-width="1486"
     inkscape:window-height="1003"
     inkscape:window-x="0"
     inkscape:window-y="0"
     inkscape:window-maximized="1"
     inkscape:current-layer="layer1" />
  <defs
     id="defs1" />
  <g
     inkscape:label="Layer 1"
     inkscape:groupmode="layer"
     id="layer1"
     transform="translate(-28.087069,-41.737748)">
    <path
       style="font-size:8.81944px;line-height:1;font-family:'Trade Winds';-inkscape-font-specification:'Trade Winds';text-align:center;letter-spacing:0px;text-anchor:middle;fill:#ffffff;stroke-width:3.17725"
       d="m 34.59626,53.249252 q 0.0961,0.01119 0.260427,0.139343 0.151089,0.124702 0.28269,0.215964 0.135084,0.07804 0.293147,0.176269 0.158064,0.09823 0.320319,0.12683 0.109326,0.01467 0.215891,-0.01387 0.103076,-0.0153 0.178977,0.01884 0.06615,0.01743 0.105132,0.08429 0.03898,0.06686 0.1114,0.114247 0.131601,0.09126 0.323094,0.170012 0.188009,0.09198 0.376727,0.127546 0.188716,0.03558 0.332197,-0.02568 0.126759,-0.05151 0.135858,-0.247196 0.0049,-0.126045 -0.02988,-0.262556 -0.04454,-0.153229 -0.06886,-0.329423 -0.03265,-0.305735 -0.0054,-0.623992 0.03073,-0.331485 -0.0131,-0.541119 -0.02504,-0.119787 -0.106492,-0.240291 -0.08145,-0.120501 -0.06681,-0.229836 0.0077,-0.08287 0.06132,-0.125342 0.05364,-0.04247 0.07803,-0.135085 0.01743,-0.06615 0.0084,-0.139283 -0.01878,-0.08985 -0.0041,-0.199177 0.01467,-0.109326 0.0488,-0.185234 0.03761,-0.08914 0.02861,-0.162253 -0.0056,-0.08636 -0.04105,-0.166456 -0.03201,-0.09333 -0.06751,-0.173424 -0.04523,-0.09682 -0.06054,-0.199886 -0.0153,-0.103076 0.01607,-0.222153 0.01743,-0.06615 0.01607,-0.222154 0.0021,-0.16923 0.03627,-0.245131 0.112889,-0.267396 0.121989,-0.463087 -0.0041,-0.199176 -0.03194,-0.362143 -0.03757,-0.179687 -0.07512,-0.359371 -0.05079,-0.183171 -0.03124,-0.418555 0.02027,-0.291794 0.07397,-0.603081 0.05369,-0.311285 0.05028,-0.566871 -0.01317,-0.272304 -0.120367,-0.456183 -0.120433,-0.187366 -0.448435,-0.23132 -0.174139,0.123918 -0.252168,0.259004 -0.09126,0.1316 -0.232677,0.292438 -0.06758,0.09539 -0.260492,0.129468 -0.192917,0.03408 -0.283469,0.109267 -0.08706,0.06197 -0.190852,0.133664 -0.113532,0.05499 -0.164382,0.140638 -0.08501,0.161545 -0.117774,0.393451 -0.04604,0.228407 -0.08159,0.41713 -0.01467,0.109326 -0.03278,0.231901 -0.01467,0.109326 -0.0091,0.195691 0.0021,0.09959 0.02432,0.176199 0.009,0.07312 0.0048,0.142771 -0.0084,0.139283 -0.02304,0.248617 -0.0244,0.09262 -0.02234,0.192203 0.01387,0.215891 0.107846,0.396288 0.08073,0.176908 0.09461,0.392803 0.0153,0.103076 0.01038,0.229123 -0.01816,0.122553 -0.01956,0.235384 0.0027,0.311997 -0.0023,0.706863 -0.005,0.394868 -0.122062,0.731903 -0.09887,-0.05435 -0.174779,-0.08849 -0.07591,-0.03413 -0.142061,-0.05155 -0.06267,-0.03064 -0.145542,-0.03834 -0.0961,-0.01119 -0.235384,-0.01956 -0.212407,6.42e-4 -0.471479,0.0173 -0.259074,0.01665 -0.517433,-0.02312 -0.188714,-0.03558 -0.370468,-0.09759 -0.194986,-0.06549 -0.38718,-0.08787 -0.192209,-0.02233 -0.361435,-0.02447 -0.178975,-0.01884 -0.317544,-0.08365 -0.05918,-0.04389 -0.08216,-0.06409 -0.03272,-0.03693 -0.08216,-0.06409 -0.201241,-0.09546 -0.493031,-0.115748 -0.288308,-0.0335 -0.533435,-0.06978 -0.0397,-0.01046 -0.119073,-0.03137 -0.07591,-0.03413 -0.158773,-0.04183 -0.07939,-0.02091 -0.142771,0.0048 -0.06338,0.02575 -0.08429,0.105131 -0.01816,0.122552 0.136439,0.234031 0.141347,0.107975 0.240223,0.162327 0.148316,0.08152 0.293858,0.11986 0.132314,0.03486 0.280626,0.116374 0.135084,0.07804 0.236739,0.175554 0.0919,0.08081 0.204013,0.138643 0.03272,0.03693 0.07242,0.04738 0.04318,-0.0028 0.09262,0.0244 0.07242,0.04737 0.160836,0.141414 0.0919,0.08081 0.154579,0.11146 0.224217,0.11566 0.522983,0.109462 0.285535,-0.0097 0.556414,0.08998 0.102365,0.04109 0.197756,0.108689 0.09887,0.05435 0.197756,0.108689 0.09887,0.05435 0.20124,0.09546 0.102365,0.04109 0.174777,0.08849 z"
       id="text8"
       aria-label="l" />
    <path
       style="font-size:8.81944px;line-height:1;font-family:'Trade Winds';-inkscape-font-specification:'Trade Winds';text-align:center;letter-spacing:0px;text-anchor:middle;fill:#ffffff;stroke-width:3.17725"
       d="m 34.676066,42.910291 q 0.0961,-0.01119 0.260426,-0.139343 0.15109,-0.124702 0.282691,-0.215964 0.135084,-0.07804 0.293147,-0.176269 0.158062,-0.09823 0.320319,-0.12683 0.109326,-0.01467 0.215891,0.01387 0.103076,0.0153 0.178976,-0.01884 0.06615,-0.01743 0.105131,-0.08429 0.03898,-0.06686 0.111401,-0.114247 0.1316,-0.09126 0.323093,-0.170012 0.188009,-0.09198 0.376729,-0.127546 0.188715,-0.03558 0.332197,0.02568 0.126759,0.05151 0.135858,0.247196 0.0049,0.126041 -0.02988,0.262557 -0.04454,0.153229 -0.06886,0.329422 -0.03265,0.305736 -0.0054,0.623993 0.03073,0.331485 -0.0131,0.541119 -0.02504,0.119787 -0.106492,0.240291 -0.08145,0.120501 -0.06679,0.229832 0.0077,0.08287 0.06131,0.125346 0.05364,0.04247 0.07803,0.135085 0.01743,0.06615 0.0084,0.139283 -0.01878,0.08985 -0.0041,0.199177 0.01467,0.109325 0.0488,0.185234 0.03761,0.08914 0.02861,0.162253 -0.0055,0.08636 -0.04105,0.166455 -0.03201,0.09333 -0.06751,0.173424 -0.04524,0.09682 -0.06054,0.199886 -0.0153,0.103075 0.01607,0.222154 0.01743,0.06615 0.01607,0.222154 0.0021,0.16923 0.03627,0.245131 0.112889,0.267396 0.121989,0.463087 -0.0041,0.199176 -0.03194,0.362143 -0.03757,0.179686 -0.07512,0.35937 -0.05079,0.183171 -0.03124,0.418555 0.02027,0.291795 0.07396,0.60308 0.05371,0.311283 0.05028,0.566873 -0.01317,0.272303 -0.120365,0.456183 -0.120434,0.187366 -0.448436,0.23132 -0.174139,-0.123917 -0.252167,-0.259003 -0.09126,-0.131601 -0.232677,-0.292438 -0.06758,-0.09539 -0.260491,-0.129468 -0.192918,-0.03408 -0.28347,-0.109267 -0.08706,-0.06197 -0.190851,-0.133664 -0.113533,-0.05499 -0.164383,-0.140638 -0.08501,-0.161545 -0.117774,-0.393451 -0.04604,-0.228407 -0.08158,-0.417134 -0.01467,-0.109326 -0.0328,-0.231897 -0.01467,-0.109326 -0.0091,-0.195691 0.0021,-0.09959 0.02432,-0.176199 0.009,-0.07312 0.0048,-0.142771 -0.0084,-0.139287 -0.02304,-0.248617 -0.0244,-0.09262 -0.02233,-0.192207 0.01387,-0.215891 0.107845,-0.396288 0.08073,-0.176908 0.09461,-0.392803 0.0153,-0.103076 0.01038,-0.229123 -0.01816,-0.122552 -0.01956,-0.235384 0.0027,-0.311996 -0.0023,-0.706863 -0.005,-0.394868 -0.122062,-0.731902 -0.09887,0.05435 -0.174778,0.08849 -0.07591,0.03413 -0.142061,0.05155 -0.06267,0.03064 -0.145541,0.03834 -0.0961,0.01119 -0.235386,0.01956 -0.212407,-6.42e-4 -0.471479,-0.0173 -0.259073,-0.01666 -0.517431,0.02311 -0.188715,0.03558 -0.37047,0.09759 -0.194986,0.06549 -0.387181,0.08787 -0.192207,0.02233 -0.361432,0.02447 -0.178973,0.01886 -0.317546,0.08365 -0.05918,0.0439 -0.08216,0.06409 -0.03272,0.03693 -0.08216,0.06409 -0.20124,0.09546 -0.493029,0.115748 -0.288309,0.0335 -0.533437,0.06978 -0.0397,0.01046 -0.119072,0.03137 -0.07591,0.03413 -0.158773,0.04183 -0.07939,0.02091 -0.142771,-0.0048 -0.06338,-0.02576 -0.08429,-0.105131 -0.01816,-0.122553 0.13644,-0.234032 0.141347,-0.107975 0.240222,-0.162326 0.148316,-0.08152 0.293857,-0.11986 0.132315,-0.03486 0.280626,-0.116375 0.135085,-0.07803 0.236739,-0.175554 0.0919,-0.08081 0.204015,-0.138643 0.03272,-0.03693 0.07242,-0.04738 0.04318,0.0028 0.09262,-0.0244 0.07242,-0.04737 0.160836,-0.141414 0.0919,-0.08081 0.154579,-0.11146 0.224218,-0.11566 0.522984,-0.109462 0.285534,0.0097 0.556415,-0.08998 0.102365,-0.04109 0.197756,-0.10869 0.09887,-0.05435 0.197754,-0.108688 0.09887,-0.05435 0.20124,-0.09546 0.102366,-0.04109 0.174778,-0.08849 z"
       id="text9"
       aria-label="l" />
    <path
       style="font-size:5.92674px;line-height:1;font-family:'Trade Winds';-inkscape-font-specification:'Trade Winds';text-align:center;letter-spacing:0px;text-anchor:middle;fill:#ffffff;stroke-width:2.13513"
       d="m 30.169803,51.609364 q 0.122062,-0.119765 0.05547,-0.208895 -0.05861,-0.08102 -0.206294,-0.146671 -0.139728,-0.05753 -0.313478,-0.107305 -0.16325,-0.04969 -0.242524,-0.09866 -0.03473,-0.05665 -0.02747,-0.112963 0.01777,-0.05621 0.01453,-0.112611 0.0018,-0.07245 -0.01189,-0.128943 -0.0058,-0.04837 -0.02204,-0.09681 -0.0058,-0.04837 -0.0195,-0.104841 -0.01626,-0.04845 -0.01189,-0.128929 0.0044,-0.08049 0.01927,-0.160885 0.02538,-0.08031 0.01927,-0.160885 -0.0032,-0.05639 -0.02747,-0.112963 -0.01626,-0.04845 -0.01696,-0.112875 -0.0465,-0.419109 -0.04593,-0.853928 0.01108,-0.434732 0.04314,-0.869287 0.0062,-0.152942 0.015,-0.313915 0.0062,-0.15294 -0.006,-0.314089 -0.0017,-0.161061 0.01754,-0.321945 0.02722,-0.152765 0.0099,-0.297852 -7.02e-4,-0.06442 -0.02747,-0.112963 -0.02676,-0.04854 -0.04049,-0.105016 -0.04338,-0.129194 -0.03969,-0.274111 0.0142,-0.144822 0.007,-0.322032 -0.0065,-0.112787 -0.02054,-0.20148 -0.01661,-0.08067 0.01061,-0.233428 0.01453,-0.112611 0.06021,-0.257169 0.05621,-0.14447 0.13729,-0.167947 0.04707,-0.01572 0.120576,-0.0151 0.08399,7.05e-4 0.167996,0.0014 0.08399,7.04e-4 0.167977,0.0014 0.08399,7.04e-4 0.141565,-0.01492 0.0916,-0.02338 0.132213,-0.151884 0.05113,-0.128414 0.02365,-0.24137 -0.252673,-0.06653 -0.501769,-0.04447 -0.24656,0.01404 -0.506505,0.0038 -0.063,-5.28e-4 -0.19694,-0.0097 -0.133943,-0.0092 -0.280936,-0.01042 -0.144445,-0.0093 -0.272977,-0.0023 -0.125984,-0.0011 -0.173074,0.01466 -0.07315,0.03159 -0.116633,0.135907 -0.05146,0.09619 -0.07905,0.216749 -0.02755,0.120557 -0.03415,0.241282 -0.0066,0.120733 -0.003,0.209336 0.0032,0.05639 0.04051,0.105017 0.04777,0.04872 0.05607,0.08905 0.03541,0.121085 0.0082,0.273847 -0.02976,0.160797 -0.0331,0.337919 0.01038,0.233603 0.0074,0.442939 0.005,0.217453 0.02586,0.451144 0.0036,0.08861 0.04373,0.161413 0.0481,0.08093 0.0622,0.169619 0.01188,0.128943 -0.03091,0.297677 -0.03483,0.176858 -0.03599,0.313738 -0.0047,0.04828 0.0061,0.08058 0.0083,0.04033 0.0061,0.08058 -0.01269,0.04016 -0.04131,0.06407 -0.03116,0.03195 -0.04385,0.0721 -0.01777,0.05621 -0.0091,0.128767 0.0061,0.08058 0.0068,0.144998 -0.02181,0.168915 -0.0143,0.378338 0.0075,0.209422 -0.04327,0.370043 0.131647,0.282934 0.113769,0.572667 -0.02214,0.136699 0.0082,0.273846 0.0383,0.145263 0.03207,0.298204 0.0039,0.120821 -0.01061,0.233428 -0.01707,0.120645 -0.02111,0.23334 -0.0066,0.120732 -1.21e-4,0.233516 0.01696,0.112875 0.0705,0.20995 0.05318,0.06486 0.182063,0.09011 0.139377,0.02532 0.294325,0.03468 0.165433,0.0095 0.325475,0.0027 0.170521,-0.0066 0.286021,-0.0057 0.202028,-0.0064 0.396083,-0.02083 0.202029,-0.0064 0.393549,-0.01281 z"
       id="text10"
       aria-label="[" />
    <path
       style="font-size:7.71239px;line-height:1;font-family:'Trade Winds';-inkscape-font-specification:'Trade Winds';text-align:center;letter-spacing:0px;text-anchor:middle;fill:#ffffff;stroke-width:2.19129"
       d="m 42.628993,48.647588 q -0.01246,-0.147446 -0.07215,-0.246351 -0.05969,-0.09891 -0.139714,-0.188232 -0.07315,-0.07942 -0.166617,-0.149271 -0.09347,-0.06985 -0.175686,-0.149377 0.177377,-0.223759 0.278421,-0.35022 0.110107,-0.126354 0.197705,-0.233337 0.09446,-0.09708 0.202389,-0.213642 0.116994,-0.116454 0.319378,-0.330095 -0.0024,-0.02948 -0.0028,-0.06877 0.0065,-0.02939 0.0041,-0.05887 0.192326,-0.04683 0.354356,-0.202024 0.168908,-0.145298 0.353758,-0.280589 0.04286,-0.02896 0.09477,-0.05779 0.06099,-0.02875 0.115098,-0.06738 0.05411,-0.03865 0.09008,-0.07749 0.04505,-0.03875 0.056,-0.08772 0.0107,-0.08826 -0.01933,-0.157347 -0.03,-0.06909 -0.08689,-0.09923 -0.0569,-0.03014 -0.124773,-0.01125 -0.06786,0.01883 -0.146384,0.125924 -0.02562,-0.08868 -0.06468,-0.157884 -0.03687,-0.07899 -0.08939,-0.128714 -0.04753,0.0092 -0.124464,0.02799 -0.06566,0.009 -0.106331,0.0282 -0.07036,-0.01062 -0.106923,-0.05036 -0.02751,-0.03961 -0.06408,-0.07931 -0.02532,-0.0494 -0.06408,-0.07931 -0.03877,-0.02992 -0.113503,-0.02098 -0.06566,0.009 -0.128551,0.08686 -0.05381,0.07791 -0.112299,0.13615 -0.09666,0.106877 -0.261183,0.232584 -0.155454,0.125817 -0.267759,0.261968 -0.06288,0.07781 -0.114503,0.145942 -0.04256,0.06823 -0.135127,0.116239 -0.180765,0.07642 -0.218932,0.125065 -0.03816,0.04865 -0.07633,0.0973 -0.03129,0.05855 -0.07165,0.116992 -0.03129,0.05855 -0.1123,0.136149 -0.06069,0.06802 -0.08321,0.0874 -0.01342,0.01948 -0.01342,0.01948 -0.0022,0.0098 -0.01561,0.02928 -0.0044,0.01958 -0.0582,0.09751 -0.02532,-0.0494 -0.06597,-0.03025 -0.04066,0.01916 -0.08131,0.03832 -0.09815,-0.08955 -0.19223,-0.237951 -0.09626,-0.138619 -0.210664,-0.277451 -0.107525,-0.12893 -0.235379,-0.248284 -0.120977,-0.109453 -0.277629,-0.140765 -0.03059,-0.14766 -0.08779,-0.217077 -0.05033,-0.05951 -0.171301,-0.168965 -0.08222,-0.07953 -0.15755,-0.149164 -0.07315,-0.07942 -0.195716,-0.10052 -0.151976,-0.01158 -0.346486,0.045 -0.194519,0.05662 -0.291179,0.163492 -0.04444,0.117313 -0.01664,0.196199 0.02561,0.08869 0.08281,0.158098 0.0572,0.06941 0.125661,0.129145 0.06847,0.05973 0.109717,0.119137 0.07563,0.108917 0.142204,0.217722 0.06438,0.118601 0.146589,0.198133 0.06627,0.06952 0.148482,0.149055 0.08909,0.08944 0.166917,0.188554 0.0869,0.09923 0.155658,0.19824 0.06876,0.09902 0.103439,0.187802 0.04096,0.02012 0.06377,0.04004 0.03189,0.02001 0.06377,0.04004 0.01465,0.137652 0.07653,0.226763 0.07096,0.08922 0.132836,0.17833 -0.08261,0.165959 -0.156751,0.253462 -0.06727,0.09741 -0.145491,0.243774 -0.02252,0.01937 -0.0566,0.0091 -0.0341,-0.01018 -0.0566,0.0091 -0.10104,0.126461 -0.152366,0.233873 -0.05131,0.107414 -0.154558,0.243668 -0.03817,0.04865 -0.08321,0.0874 -0.04724,0.04854 -0.07634,0.0973 -0.03348,0.06834 -0.03972,0.137009 -0.0063,0.06866 -0.05571,0.126997 -0.02909,0.04876 -0.07444,0.04822 -0.03846,0.0093 -0.09946,0.03811 -0.06537,0.04833 -0.121378,0.136042 -0.04694,0.08782 -0.109809,0.165637 -0.04505,0.03875 -0.09916,0.07738 -0.0563,0.04843 -0.11261,0.09687 -0.04724,0.04854 -0.08759,0.106985 -0.03348,0.06834 -0.0463,0.166389 -0.0019,0.04908 0.0075,0.08847 0.0094,0.03939 0.0075,0.08846 -0.0016,0.08835 0.07185,0.207068 0.08251,0.118816 0.185354,0.228051 0.111909,0.109346 0.232587,0.179511 0.127555,0.08007 0.227305,0.08125 0.04534,5.37e-4 0.155756,-0.08654 0.108223,-0.07728 0.146383,-0.125924 0.03597,-0.03886 0.06727,-0.09741 0.03129,-0.05855 0.08072,-0.116884 0.109809,-0.165639 0.190228,-0.321804 0.08949,-0.156059 0.201491,-0.33149 0.192722,-0.292315 0.363222,-0.525974 0.179569,-0.233551 0.39511,-0.505957 0.04035,-0.05844 0.146087,-0.165209 0.105736,-0.10677 0.15107,-0.106233 0.05441,6.44e-4 0.152566,0.09019 0.105031,0.09945 0.139414,0.148948 0.08222,0.07953 0.12596,0.168429 0.04156,0.09869 0.06497,0.197168 0.03248,0.09859 0.06716,0.187372 0.03249,0.09859 0.116893,0.168321 0.104137,-0.0184 0.142908,0.01147 0.04564,0.03982 0.09348,0.06985 -0.02352,0.186298 0.06996,0.256144 0.100349,0.07974 0.196316,0.179082 0.04564,0.03982 0.05939,0.05962 0.02282,0.01991 0.0297,0.02982 0.01375,0.0198 0.0297,0.02982 0.02283,0.01991 0.06847,0.05973 0.0547,0.03993 0.06846,0.05973 0.02282,0.01991 0.02751,0.03961 0.01375,0.0198 0.03657,0.03972 0.02062,0.02971 0.07315,0.07942 0.08909,0.08944 0.166618,0.149272 0.07534,0.06963 0.148482,0.149055 0.07315,0.07942 0.107525,0.128929 0.04345,0.04962 0.06876,0.09902 0.03438,0.04951 0.06877,0.09902 0.04126,0.0594 0.1144,0.138832 0.101936,-0.0086 0.167314,-0.05694 0.07224,-0.03843 0.137614,-0.08674 0.07823,-0.146373 0.07918,-0.3133 10e-4,-0.166925 0.0045,-0.304362 -0.0028,-0.06877 0.01036,-0.127535 0.01316,-0.05876 0.02631,-0.117527 0.01096,-0.04897 0.0038,-0.09816 -0.0072,-0.04919 -0.03936,-0.108488 -0.01375,-0.0198 -0.04564,-0.03982 -0.02282,-0.01991 -0.0547,-0.03993 -0.08471,-0.109023 -0.125962,-0.168429 -0.04345,-0.04962 -0.08002,-0.08933 -0.02751,-0.03961 -0.08222,-0.07953 -0.04564,-0.03982 -0.155059,-0.119674 -0.03687,-0.07899 -0.08032,-0.128608 -0.03438,-0.04951 -0.08002,-0.08933 -0.03657,-0.03972 -0.08002,-0.08933 -0.04564,-0.03982 -0.09377,-0.109132 -0.112208,-0.148626 -0.224416,-0.297253 -0.114401,-0.138831 -0.343599,-0.171004 z"
       id="text11"
       aria-label="x" />
  </g>
</svg>
